<svg width="48" height="48" viewBox="0 0 48 48" fill="none" xmlns="http://www.w3.org/2000/svg">
<rect width="48" height="48" rx="10" fill="#B4A390"/>
<path d="M33.2558 40.7809C33.2558 41.0431 33.0853 41.3052 32.7442 41.5674C32.4031 41.8296 31.876 41.9738 31.1628 42C30.2636 42 29.2558 41.6985 28.1395 41.0955C27.0543 40.5187 25.907 39.7322 24.6977 38.736C23.4884 37.7135 22.2791 36.573 21.0698 35.3146C19.8605 34.0562 18.6977 32.7584 17.5814 31.4213C16.4651 30.0581 15.4574 28.7472 14.5581 27.4888C13.814 30.1891 13.2093 32.47 12.7442 34.3315C12.3101 36.1929 11.8915 37.6086 11.4884 38.5786C11.1163 39.5225 10.6512 39.9944 10.093 39.9944C9.5969 39.9944 9.11628 39.7453 8.65116 39.2472C8.21705 38.7228 8 37.7397 8 36.2978C8 35.5375 8.06202 34.764 8.18605 33.9775C8.31008 33.1648 8.52713 32.2079 8.83721 31.1067C9.14729 29.9794 9.56589 28.5637 10.093 26.8596C9.75194 26.6236 9.53488 26.3876 9.44186 26.1517C9.34884 25.9157 9.30233 25.6536 9.30233 25.3652C9.30233 24.9981 9.42636 24.6311 9.67442 24.264C9.92248 23.897 10.4031 23.6217 11.1163 23.4382C12.2016 20.3708 13.0698 17.9457 13.7209 16.1629C14.3721 14.3539 14.9457 13.0693 15.4419 12.309C15.969 11.5225 16.5271 11.1292 17.1163 11.1292C18.3876 11.1292 19.0233 11.7715 19.0233 13.0562C19.0233 13.5281 18.7597 14.5768 18.2326 16.2022C17.7054 17.8015 16.8992 20.2659 15.814 23.5955C18.2636 22.1011 20.5581 20.5674 22.6977 18.9944C24.8372 17.4213 26.7907 15.927 28.5581 14.5112C30.3256 13.0693 31.876 11.7846 33.2093 10.6573C34.5426 9.52996 35.6279 8.63858 36.4651 7.98314C37.3023 7.32771 37.8605 7 38.1395 7C38.6667 7 39.1008 7.14419 39.4419 7.43258C39.814 7.72097 40 8.04869 40 8.41573C40 8.86142 39.7829 9.29401 39.3488 9.71348C38.6046 10.4476 37.6124 11.4045 36.3721 12.5843C35.1318 13.764 33.7364 15.0356 32.186 16.3989C30.6357 17.736 29.0078 19.0468 27.3023 20.3315C25.6279 21.6161 23.9535 22.7566 22.2791 23.7528C20.6047 24.7228 19.0388 25.4045 17.5814 25.7978C18.0155 26.2172 18.4496 26.6498 18.8837 27.0955C19.3178 27.5412 19.7209 27.9738 20.093 28.3933C21.2093 29.6255 22.4806 30.9363 23.907 32.3258C25.3643 33.7154 26.8372 35.0393 28.3256 36.2978C29.814 37.53 31.1628 38.5524 32.3721 39.3652C32.9612 39.8109 33.2558 40.2828 33.2558 40.7809Z" fill="black"/>
</svg>
